<svg width="19" height="18" viewBox="0 0 19 18" fill="none" xmlns="http://www.w3.org/2000/svg">
<path d="M9.13829 18C14.0916 18 18.1215 13.9626 18.1215 9.00006C18.1215 4.03743 14.0916 0 9.13829 0C4.18494 0 0.15506 4.03743 0.15506 9.00006C0.15506 13.9626 4.18494 18 9.13829 18ZM3.28133 13.4434C3.99313 13.1629 4.88933 12.9394 5.89665 12.7863C6.03341 13.6088 6.21493 14.3714 6.43869 15.0441C6.55591 15.3965 6.67934 15.7074 6.80684 15.9837C5.39114 15.5081 4.16654 14.6117 3.28133 13.4434ZM1.78837 9.00006C1.78837 7.92306 2.02041 6.89936 2.43686 5.97646C3.3201 6.35527 4.43581 6.64834 5.69271 6.83756C5.63151 7.53634 5.59944 8.26135 5.59944 9.00006C5.59944 9.7387 5.63151 10.4638 5.69271 11.1625C4.43581 11.3518 3.32004 11.6448 2.43691 12.0237C2.02041 11.1008 1.78837 10.077 1.78837 9.00006ZM9.13829 1.63635C9.31415 1.63635 9.82668 2.08531 10.2885 3.47332C10.4783 4.04387 10.6344 4.69094 10.7548 5.39157C10.2298 5.42833 9.68839 5.44775 9.13807 5.44775C8.58792 5.44775 8.04669 5.42839 7.5218 5.39157C7.64223 4.69094 7.79832 4.04392 7.98817 3.47338C8.44996 2.08531 8.96244 1.63635 9.13829 1.63635ZM9.13807 7.0841C9.7602 7.0841 10.3701 7.06119 10.9608 7.0175C11.0154 7.65595 11.0438 8.32064 11.0438 9.00006C11.0438 9.67947 11.0154 10.344 10.9609 10.9825C10.3701 10.9388 9.76037 10.9159 9.13829 10.9159C8.51622 10.9159 7.90645 10.9388 7.31578 10.9825C7.26123 10.344 7.23276 9.67941 7.23276 9.00006C7.23276 8.32064 7.26123 7.65601 7.31578 7.0175C7.90639 7.06119 8.51611 7.0841 9.13807 7.0841ZM16.4882 9.00006C16.4882 10.077 16.2562 11.1006 15.8397 12.0235C14.9565 11.6447 13.8408 11.3517 12.5839 11.1625C12.6451 10.4638 12.6771 9.73876 12.6771 9.00006C12.6771 8.2613 12.6451 7.53628 12.5839 6.8375C13.8408 6.64829 14.9565 6.35516 15.8396 5.97629C16.2562 6.89925 16.4882 7.92301 16.4882 9.00006ZM9.13829 16.3636C8.96244 16.3636 8.44996 15.9146 7.98822 14.5267C7.79837 13.9561 7.64228 13.3091 7.5218 12.6084C8.0468 12.5716 8.58803 12.5523 9.13829 12.5523C9.68856 12.5523 10.2298 12.5716 10.7548 12.6084C10.6344 13.3091 10.4783 13.9561 10.2885 14.5267C9.82668 15.9147 9.3142 16.3636 9.13829 16.3636ZM11.4698 15.9837C11.5973 15.7074 11.7207 15.3965 11.8379 15.0441C12.0618 14.3714 12.2433 13.6088 12.38 12.7863C13.3873 12.9394 14.2835 13.1629 14.9953 13.4434C14.1101 14.6115 12.8856 15.508 11.4698 15.9837ZM14.9951 4.55654C14.2835 4.83701 13.3873 5.06059 12.38 5.2137C12.2432 4.39116 12.0618 3.62851 11.8379 2.95586C11.7208 2.60355 11.5973 2.29259 11.4698 2.01626C12.8854 2.492 14.11 3.38834 14.9951 4.55654ZM6.80684 2.01632C6.67934 2.29253 6.55597 2.60355 6.43869 2.95586C6.21493 3.62861 6.03341 4.39121 5.89665 5.2138C4.88933 5.06064 3.99313 4.83712 3.28133 4.5567C4.16648 3.38845 5.39109 2.49195 6.80684 2.01632Z" fill="#5F6368"/>
</svg>
