<svg width="20" height="20" viewBox="0 0 20 20" fill="none" xmlns="http://www.w3.org/2000/svg">
<g id="Group 10">
<mask id="mask0_1021_1723" style="mask-type:alpha" maskUnits="userSpaceOnUse" x="0" y="0" width="20" height="20">
<circle id="Ellipse 19" cx="10" cy="10" r="10" fill="#CC0000"/>
</mask>
<g mask="url(#mask0_1021_1723)">
<circle id="Ellipse 21" cx="10" cy="10" r="10" fill="#CC0000"/>
<circle id="Ellipse 20" cx="10" cy="10" r="7.14286" fill="white"/>
<path id="Vector" d="M1.71429 1.71436V18.2858H18.2857V1.71436H1.71429ZM7.66827 11.0606V8.10679C7.66827 6.99512 9.10515 6.46138 9.86537 7.75326C9.92061 7.84648 11.1179 9.90893 11.1179 9.90893V8.10679C11.1179 6.99512 12.5541 6.46138 13.3143 7.75326C13.3695 7.84648 14.5668 9.90893 14.5668 9.90893V7.02136H15.2835V11.8692C15.2853 11.902 15.276 11.9344 15.2571 11.9612C15.2382 11.988 15.2108 12.0077 15.1793 12.017C15.1033 12.0377 15.0232 11.9907 14.9645 11.8913C14.9528 11.872 14.3431 10.8238 13.7576 9.81088L12.6832 7.96109C12.5327 7.70562 12.3083 7.66074 12.1488 7.70424C12.0569 7.72995 11.9761 7.78549 11.9193 7.86211C11.8624 7.93873 11.8326 8.03209 11.8346 8.1275V11.8692C11.8363 11.9019 11.8269 11.9343 11.808 11.9611C11.7891 11.9879 11.7618 12.0076 11.7303 12.017C11.6537 12.0377 11.5736 11.9907 11.5156 11.8913C11.5052 11.874 10.9397 10.8998 10.3936 9.95795C9.69758 8.7579 9.24049 7.97076 9.23358 7.95902C9.08306 7.70286 8.85796 7.65867 8.69708 7.70217C8.60512 7.72786 8.52429 7.78337 8.4673 7.85998C8.41031 7.93659 8.38039 8.02996 8.38222 8.12543V11.7884C8.37911 11.8371 8.35831 11.883 8.32372 11.9175C8.28913 11.952 8.24315 11.9726 8.19441 11.9755H6.33496C5.81049 11.9755 5.3075 11.7672 4.93664 11.3963C4.56578 11.0255 4.35744 10.5225 4.35744 9.998C4.35744 9.47353 4.56578 8.97054 4.93664 8.59968C5.3075 8.22882 5.81049 8.02048 6.33496 8.02048H7.30163V8.73581H6.34325C6.00849 8.73581 5.68745 8.86879 5.45074 9.1055C5.21404 9.3422 5.08106 9.66325 5.08106 9.998C5.08106 10.3328 5.21404 10.6538 5.45074 10.8905C5.68745 11.1272 6.00849 11.2602 6.34325 11.2602H7.4708C7.49696 11.2604 7.52289 11.2553 7.54707 11.2453C7.57125 11.2354 7.59319 11.2206 7.61159 11.202C7.62999 11.1834 7.64449 11.1614 7.65422 11.1371C7.66396 11.1128 7.66873 11.0868 7.66827 11.0606ZM16.2833 11.8927C16.2833 13.0043 14.8465 13.5381 14.0862 12.2469C14.0317 12.1537 12.8337 10.0905 12.8337 10.0905V11.8927C12.8337 13.0043 11.3975 13.5381 10.6373 12.2469C10.5821 12.1537 9.3848 10.0905 9.3848 10.0905V11.7898C9.3848 12.561 8.92701 12.9788 8.21099 12.9788H6.33634C5.54634 12.9788 4.78869 12.665 4.23007 12.1063C3.67146 11.5477 3.35763 10.7901 3.35763 10.0001C3.35763 9.21007 3.67146 8.45242 4.23007 7.8938C4.78869 7.33518 5.54634 7.02136 6.33634 7.02136H7.30301V7.73669H6.33634C6.03911 7.73669 5.74479 7.79523 5.47018 7.90898C5.19558 8.02272 4.94606 8.18944 4.73589 8.39962C4.52572 8.60979 4.359 8.85931 4.24525 9.13391C4.13151 9.40852 4.07296 9.70284 4.07296 10.0001C4.07296 10.2973 4.13151 10.5916 4.24525 10.8662C4.359 11.1408 4.52572 11.3903 4.73589 11.6005C4.94606 11.8107 5.19558 11.9774 5.47018 12.0912C5.74479 12.2049 6.03911 12.2635 6.33634 12.2635H8.19441C8.31915 12.261 8.43809 12.2104 8.52638 12.1222C8.61466 12.0341 8.66543 11.9152 8.66808 11.7905V8.1275C8.66631 8.09481 8.67565 8.06249 8.69458 8.03579C8.71351 8.00909 8.74092 7.98958 8.77234 7.98043C8.8483 7.95971 8.92839 8.00667 8.98708 8.10609L10.1464 10.1036C10.8203 11.2657 11.2629 12.0287 11.2684 12.037C11.4196 12.2925 11.6447 12.3373 11.8056 12.2931C11.8976 12.2674 11.9783 12.2117 12.0351 12.1349C12.0918 12.0582 12.1214 11.9646 12.1191 11.8692V8.12819C12.1172 8.09559 12.1263 8.06331 12.145 8.03651C12.1636 8.00972 12.1907 7.98997 12.222 7.98043C12.2972 7.95971 12.3766 8.00667 12.4346 8.10609L14.7167 12.039C14.8347 12.2393 14.9991 12.3104 15.142 12.3104C15.1796 12.3104 15.217 12.3053 15.2532 12.2952C15.3463 12.2702 15.4283 12.2145 15.486 12.1373C15.5438 12.06 15.5738 11.9656 15.5715 11.8692V7.02136H16.2854L16.2833 11.8927Z" fill="#CC0000"/>
</g>
</g>
</svg>
